<?xml version="1.0" encoding="UTF-8"?>
<svg version="1.1" xmlns="http://www.w3.org/2000/svg" width="1300" height="400">
<path d="M0 0 C429 0 858 0 1300 0 C1300 132 1300 264 1300 400 C871 400 442 400 0 400 C0 268 0 136 0 0 Z " fill="#000000" transform="translate(0,0)"/>
<path d="M0 0 C-3.23266975 2.6908148 -6.42777197 4.93884808 -10.11328125 6.9609375 C-11.59538086 7.78078125 -11.59538086 7.78078125 -13.10742188 8.6171875 C-14.16509766 9.19726562 -15.22277344 9.77734375 -16.3125 10.375 C-24.93590036 15.15072842 -33.50266111 20.00339248 -42 25 C-51.14874777 30.37260944 -60.37404719 35.59077409 -69.64453125 40.75 C-76.81353695 44.74964452 -83.92092763 48.84348044 -91 53 C-100.14913289 58.37196793 -109.37403131 63.59076525 -118.64453125 68.75 C-126.81477622 73.30824377 -134.89777021 78.00377909 -142.96508789 82.74121094 C-151.19311218 87.56018341 -159.4954492 92.23763248 -167.83789062 96.85546875 C-168.78728516 97.38269531 -169.73667969 97.90992188 -170.71484375 98.453125 C-171.65791885 98.97600098 -172.60099396 99.49887695 -173.57264709 100.03759766 C-175.92633555 101.38525104 -178.22095429 102.75125481 -180.51158142 104.19604492 C-192.23512777 111.508494 -204.50750694 116.60075962 -217.3515625 121.609375 C-219.60146843 122.49912819 -221.85085669 123.39019134 -224.09976196 124.2824707 C-230.04677269 126.638049 -236.00028941 128.97669381 -241.95576477 131.31077576 C-251.75581121 135.1547551 -261.54629875 139.02310362 -271.33926392 142.88507843 C-274.9450585 144.30624156 -278.55170518 145.72522545 -282.15844727 147.14398193 C-294.39741073 151.96312399 -306.6080017 156.83673148 -318.74831772 161.89958954 C-320.74115978 162.73003818 -322.73561234 163.55647633 -324.73074341 164.38140869 C-331.60600739 167.22279229 -331.60600739 167.22279229 -338.45391846 170.12927246 C-350.70770375 175.4039433 -359.67377577 178.37694653 -373 176 C-374.14968262 175.8340332 -375.29936523 175.66806641 -376.48388672 175.49707031 C-379.94052402 174.97746127 -383.37328849 174.37409665 -386.8125 173.75 C-389.43304312 173.29326916 -392.0538423 172.83916391 -394.67578125 172.390625 C-395.68748886 172.21708496 -395.68748886 172.21708496 -396.71963501 172.04003906 C-404.62343511 170.70009166 -412.56040142 169.60339822 -420.5 168.5 C-432.58713968 166.8148127 -444.62204058 164.93366151 -456.65234375 162.875 C-466.24752393 161.25041923 -475.86275572 159.84522058 -485.5 158.5 C-497.58689737 156.81284312 -509.62196111 154.9336751 -521.65234375 152.875 C-531.24752393 151.25041923 -540.86275572 149.84522058 -550.5 148.5 C-562.58689737 146.81284312 -574.62196111 144.9336751 -586.65234375 142.875 C-596.24752393 141.25041923 -605.86275572 139.84522058 -615.5 138.5 C-627.58689737 136.81284312 -639.62196111 134.9336751 -651.65234375 132.875 C-661.24752492 131.25041906 -670.8627592 129.84524714 -680.5 128.5 C-691.21667273 127.0039967 -701.89680925 125.39468355 -712.5625 123.5625 C-731.64452625 120.28718746 -750.82640282 117.6747736 -770 115 C-769.505 114.01 -769.505 114.01 -769 113 C-767.0925293 112.54516602 -767.0925293 112.54516602 -764.57421875 112.25390625 C-763.17768066 112.08387085 -763.17768066 112.08387085 -761.75292969 111.91040039 C-760.74133789 111.79559326 -759.72974609 111.68078613 -758.6875 111.5625 C-756.56100496 111.30366373 -754.43470492 111.04322073 -752.30859375 110.78125 C-751.2397998 110.65105469 -750.17100586 110.52085937 -749.06982422 110.38671875 C-744.78554741 109.84701027 -740.51795906 109.21747505 -736.25 108.5625 C-735.45110352 108.44068359 -734.65220703 108.31886719 -733.82910156 108.19335938 C-732.13682753 107.93524953 -730.44460913 107.67677464 -728.75244141 107.41796875 C-723.48303518 106.61778927 -718.21002856 105.84178966 -712.9375 105.0625 C-710.62369508 104.72007126 -708.30989302 104.37762318 -705.99609375 104.03515625 C-704.83835449 103.86387207 -703.68061523 103.69258789 -702.48779297 103.51611328 C-696.82508368 102.67816232 -691.162549 101.83903331 -685.5 101 C-683.25000087 100.66666076 -681.00000087 100.33332744 -678.75 100 C-677.63625 99.835 -676.5225 99.67 -675.375 99.5 C-611.25 90 -611.25 90 -607.87451172 89.5 C-605.62611134 89.16685545 -603.3777389 88.83352233 -601.12939453 88.5 C-595.48013511 87.66222424 -589.83041737 86.82780363 -584.1796875 86 C-573.46110343 84.42638302 -562.75392371 82.81159207 -552.0625 81.0625 C-540.78943769 79.22171926 -529.48414366 77.65721466 -518.16799927 76.11013794 C-506.06017333 74.46160896 -506.06017333 74.46160896 -494 72.5 C-484.22681939 70.79357164 -474.39344125 69.51129702 -464.56542969 68.16699219 C-452.25990542 66.48392758 -452.25990542 66.48392758 -440 64.5 C-430.22681939 62.79357164 -420.39344125 61.51129702 -410.56542969 60.16699219 C-398.25990542 58.48392758 -398.25990542 58.48392758 -386 56.5 C-376.22681939 54.79357164 -366.39344125 53.51129702 -356.56542969 52.16699219 C-344.25990542 50.48392758 -344.25990542 50.48392758 -332 48.5 C-322.22681939 46.79357164 -312.39344125 45.51129702 -302.56542969 44.16699219 C-290.25990542 42.48392758 -290.25990542 42.48392758 -278 40.5 C-268.22681939 38.79357164 -258.39344125 37.51129702 -248.56542969 36.16699219 C-236.25990542 34.48392758 -236.25990542 34.48392758 -224 32.5 C-214.22681939 30.79357164 -204.39344125 29.51129702 -194.56542969 28.16699219 C-182.25990542 26.48392758 -182.25990542 26.48392758 -170 24.5 C-164.11800636 23.48822364 -158.23002447 22.58286101 -152.31640625 21.77734375 C-151.13424782 21.61420433 -151.13424782 21.61420433 -149.9282074 21.44776917 C-145.90283325 20.89259953 -141.87655151 20.34445005 -137.84960938 19.80078125 C-130.64259003 18.82232544 -123.47953022 17.77916525 -116.33178711 16.42211914 C-112.89921054 15.8007261 -109.46584455 15.39771987 -106 15 C-101.47171373 14.46325111 -96.97936611 13.86349226 -92.5 13 C-87.32849448 12.00308327 -82.12855644 11.37286334 -76.90234375 10.75 C-73.07208366 10.28484507 -69.28833788 9.730282 -65.5 9 C-60.32849448 8.00308327 -55.12855644 7.37286334 -49.90234375 6.75 C-46.07208366 6.28484507 -42.28833788 5.730282 -38.5 5 C-33.3359239 4.00451545 -28.14363861 3.37197135 -22.92431641 2.75439453 C-18.87376288 2.26515044 -14.88025657 1.6498589 -10.875 0.875 C-7.19109376 0.16377828 -3.76877038 -0.20371732 0 0 Z " fill="#000000" transform="translate(938,86)"/>
<path d="M0 0 C1.03594174 -0.00557822 2.07188349 -0.01115644 3.13921741 -0.0169037 C4.29356293 -0.0179927 5.44790846 -0.01908171 6.63723415 -0.02020371 C7.855977 -0.02525231 9.07471985 -0.03030091 10.3303943 -0.03550249 C13.74391621 -0.04857182 17.15739632 -0.05709474 20.57093338 -0.06372671 C24.27322651 -0.07196449 27.97549917 -0.08584569 31.67777765 -0.09896016 C39.03494092 -0.12405185 46.39210968 -0.14351444 53.7492941 -0.16118832 C59.86852341 -0.17602532 65.98774267 -0.19316749 72.10696167 -0.21176445 C139.55654422 -0.41633324 207.00641141 -0.52805193 274.45624154 -0.61246131 C284.22903087 -0.62473184 294.00181958 -0.63747461 303.77460808 -0.65039361 C305.39444469 -0.65251908 305.39444469 -0.65251908 307.04700528 -0.65468749 C342.04395005 -0.70092312 377.04059676 -0.79194281 412.03737679 -0.90723977 C448.00733763 -1.02552721 483.97713636 -1.10136772 519.94729185 -1.1228297 C525.02920577 -1.12587534 530.11111927 -1.12939111 535.19303268 -1.13318551 C536.6932962 -1.1342805 536.6932962 -1.1342805 538.22386807 -1.13539762 C554.31534445 -1.14835906 570.40636934 -1.20574321 586.4976685 -1.27962047 C602.67932638 -1.35292049 618.86051025 -1.37856349 635.042323 -1.35587393 C644.65328467 -1.34382284 654.26256045 -1.36786294 663.87323607 -1.44407409 C670.29993483 -1.49144243 676.7255166 -1.49122252 683.15227264 -1.45298057 C686.8107406 -1.4325507 690.46601864 -1.43215401 694.12415762 -1.49000297 C720.00724426 -1.87529395 720.00724426 -1.87529395 730.44787965 8.11120052 C731.53315587 9.22807359 732.60498954 10.35820169 733.66147577 11.50234626 C736.27781539 14.19498957 739.2568646 16.38878212 742.251903 18.63915718 C747.99795914 23.11327439 753.64904955 27.69889747 759.2909655 32.30321968 C763.57641918 35.794458 767.89519753 39.23734606 772.251903 42.63915718 C777.99200967 47.12115828 783.64883546 51.69872275 789.2909655 56.30321968 C793.57641918 59.794458 797.89519753 63.23734606 802.251903 66.63915718 C807.99200967 71.12115828 813.64883546 75.69872275 819.2909655 80.30321968 C823.57641918 83.794458 827.89519753 87.23734606 832.251903 90.63915718 C837.98224375 95.11353283 843.63816635 99.67322801 849.25800651 104.28564155 C852.57431122 106.99931335 855.91393506 109.66102064 859.34174675 112.23290718 C859.98950065 112.72339546 860.63725456 113.21388374 861.30463737 113.7192353 C862.52789662 114.64079952 863.75930808 115.55167747 864.99994987 116.44970405 C867.67158071 118.47156399 869.11636793 119.70544497 870.13080925 122.95165718 C870.17077018 123.67353218 870.21073112 124.39540718 870.251903 125.13915718 C868.21674675 125.99853218 868.21674675 125.99853218 865.251903 126.13915718 C862.48955403 124.56889571 860.19524989 122.48016184 857.814403 120.38915718 C856.37914398 119.17450522 854.94292955 117.96098138 853.50580925 116.74853218 C852.78925163 116.13687202 852.07269401 115.52521186 851.33442253 114.89501655 C848.36900635 112.39475006 845.31825401 110.01362041 842.251903 107.63915718 C836.50984858 103.15971481 830.85490699 98.57953974 825.2128405 93.97509468 C820.92738681 90.48385635 816.60860847 87.0409683 812.251903 83.63915718 C806.51179632 79.15715607 800.85497054 74.5795916 795.2128405 69.97509468 C790.92738681 66.48385635 786.60860847 63.0409683 782.251903 59.63915718 C776.51179632 55.15715607 770.85497054 50.5795916 765.2128405 45.97509468 C760.36776492 42.02794817 755.47226456 38.15186847 750.54536003 34.30761421 C746.02298275 30.76942104 741.5708435 27.15015641 737.126903 23.51415718 C730.63190451 18.20399339 724.01854272 13.09879652 717.251903 8.13915718 C707.45125527 12.72889713 698.15516538 18.03928617 688.83588737 23.53027046 C681.52676226 27.83075045 674.16391812 32.01879356 666.751903 36.13915718 C658.52967321 40.71444566 650.36607976 45.3748699 642.251903 50.13915718 C633.10277011 55.51112511 623.87787169 60.72992243 614.60737175 65.88915718 C607.43836605 69.8888017 600.33097537 73.98263762 593.251903 78.13915718 C585.1377145 82.90345134 576.97386903 87.56338217 568.751903 92.13915718 C560.4897049 96.73790358 552.28520608 101.42105459 544.126903 106.20165718 C543.13311638 106.78028511 542.13932976 107.35891304 541.11542839 107.95507514 C536.2951021 110.76224566 531.49396738 113.59392158 526.72455925 116.48681343 C516.9194058 122.34567403 507.11919328 127.18722571 496.41205925 131.17040718 C493.65511376 132.21426083 490.90161024 133.26702049 488.14863151 134.32128608 C487.39185678 134.61072153 486.63508205 134.90015697 485.85537475 135.19836318 C474.63502693 139.50644226 463.49554127 144.01993028 452.345653 148.50634468 C450.61772357 149.20114873 450.61772357 149.20114873 448.85488647 149.90998924 C441.70117285 152.78657412 434.54862284 155.66604112 427.39649528 158.54656684 C421.29547308 161.00330288 415.19358698 163.45789125 409.09174675 165.91259468 C401.16985953 169.09955747 393.24821233 172.28711297 385.32735008 175.47662246 C382.39382066 176.65740975 379.45972998 177.83679351 376.52558464 179.01604927 C373.18590121 180.35875869 369.84911885 181.70821099 366.51533073 183.06548774 C365.80920395 183.35166025 365.10307716 183.63783275 364.37555259 183.93267715 C362.54692995 184.67392209 360.71960596 185.41836863 358.89240593 186.16311347 C356.251903 187.13915718 356.251903 187.13915718 354.251903 187.13915718 C354.251903 187.79915718 354.251903 188.45915718 354.251903 189.13915718 C355.13362175 189.09403999 356.0153405 189.0489228 356.923778 189.00243843 C362.86475885 189.00985723 368.67183444 190.29371121 374.501903 191.32665718 C385.89331961 193.30024176 397.30134067 195.04651794 408.751903 196.63915718 C420.83899815 198.32471738 432.87392769 200.20549295 444.90424675 202.26415718 C454.49942693 203.88873795 464.11465872 205.2939366 473.751903 206.63915718 C485.83880037 208.32631406 497.87386411 210.20548207 509.90424675 212.26415718 C519.49942693 213.88873795 529.11465872 215.2939366 538.751903 216.63915718 C550.83880037 218.32631406 562.87386411 220.20548207 574.90424675 222.26415718 C584.49942693 223.88873795 594.11465872 225.2939366 603.751903 226.63915718 C615.8197229 228.32365112 627.83735887 230.19178245 639.84711784 232.25756538 C646.8064564 233.44043863 653.76847473 234.52021662 660.7597155 235.49462593 C661.56165336 235.60666358 662.36359123 235.71870124 663.18983024 235.83413398 C667.11923884 236.38070362 671.04978023 236.91677613 674.98237175 237.43993843 C676.40817201 237.63511207 677.83395419 237.83041789 679.2597155 238.02587593 C680.51413444 238.19305122 681.76855339 238.36022651 683.06098503 238.53246772 C685.86332612 239.06527703 687.82277307 239.6931381 690.251903 241.13915718 C689.921903 242.78915718 689.591903 244.43915718 689.251903 246.13915718 C529.531903 246.13915718 369.811903 246.13915718 205.251903 246.13915718 C204.921903 244.48915718 204.591903 242.83915718 204.251903 241.13915718 C210.37108237 237.96445821 216.58598976 235.30180718 222.99482292 232.76952827 C224.56460647 232.14436569 224.56460647 232.14436569 226.16610283 231.50657356 C229.60354216 230.13857508 233.04293421 228.77556055 236.48237175 227.41259468 C238.8804693 226.45934138 241.27844211 225.50577423 243.6762957 224.55190742 C249.33205695 222.30291015 254.98905052 220.05704035 260.64666629 217.81271315 C267.0715978 215.26380188 273.49496077 212.71094953 279.9181841 210.15773737 C290.89918386 205.79287951 301.88126874 201.4307617 312.86484855 197.07239997 C314.22090957 196.534234 314.22090957 196.534234 315.60436577 195.98519599 C316.38579539 195.67513807 317.16722502 195.36508014 317.97233433 195.04562652 C319.60920212 194.39472686 321.23572678 193.71758705 322.85487407 193.02377975 C325.251903 192.13915718 325.251903 192.13915718 328.251903 192.13915718 C328.251903 191.47915718 328.251903 190.81915718 328.251903 190.13915718 C327.06362907 190.18081001 325.87535515 190.22246284 324.65107292 190.26537788 C317.97035725 190.25734085 311.45136972 189.14043374 304.86518425 188.11962593 C303.43477937 187.90284719 302.00429089 187.68661952 300.57372612 187.47089851 C296.71061424 186.88651755 292.84885643 186.29360325 288.9873156 185.69894111 C285.71942376 185.19682493 282.45076218 184.69982271 279.18209594 184.20277679 C255.08307705 180.53735406 231.00112789 176.76354662 206.92441887 172.95467842 C184.54832194 169.41507269 162.15666086 165.99233929 139.751903 162.63915718 C115.90265266 159.06978677 92.07036123 155.40854345 68.251903 151.63915718 C44.8337101 147.93351488 21.40341947 144.32055481 -2.04354149 140.80136955 C-5.11956584 140.33959744 -8.1954981 139.87721357 -11.27143246 139.41484249 C-27.57706857 136.96391281 -27.57706857 136.96391281 -43.88377815 134.52013862 C-51.47222986 133.38460016 -59.05984643 132.24377563 -66.64598519 131.09286201 C-68.89857854 130.75232562 -71.15154373 130.41423866 -73.40489632 130.07876289 C-76.45386827 129.62464039 -79.5014771 129.16227928 -82.54887825 128.69775093 C-83.43363335 128.56804908 -84.31838845 128.43834724 -85.2299543 128.30471504 C-86.0381411 128.17974647 -86.8463279 128.0547779 -87.67900521 127.92602241 C-88.72106873 127.76927291 -88.72106873 127.76927291 -89.78418404 127.60935676 C-91.98108918 127.08337424 -93.76973663 126.21671121 -95.748097 125.13915718 C-95.418097 123.48915718 -95.088097 121.83915718 -94.748097 120.13915718 C-80.29711023 117.72588332 -65.82568693 115.56033117 -51.310597 113.57665718 C-38.00309825 111.78069146 -38.00309825 111.78069146 -24.748097 109.63915718 C-14.97491639 107.93272881 -5.14153826 106.65045419 4.68647331 105.30614936 C16.99199758 103.62308476 16.99199758 103.62308476 29.251903 101.63915718 C39.02508361 99.93272881 48.85846174 98.65045419 58.68647331 97.30614936 C70.99199758 95.62308476 70.99199758 95.62308476 83.251903 93.63915718 C93.02508361 91.93272881 102.85846174 90.65045419 112.68647331 89.30614936 C124.99199758 87.62308476 124.99199758 87.62308476 137.251903 85.63915718 C147.02508361 83.93272881 156.85846174 82.65045419 166.68647331 81.30614936 C178.99199758 79.62308476 178.99199758 79.62308476 191.251903 77.63915718 C201.02508361 75.93272881 210.85846174 74.65045419 220.68647331 73.30614936 C232.99199758 71.62308476 232.99199758 71.62308476 245.251903 69.63915718 C255.02508361 67.93272881 264.85846174 66.65045419 274.68647331 65.30614936 C286.99199758 63.62308476 286.99199758 63.62308476 299.251903 61.63915718 C309.02508361 59.93272881 318.85846174 58.65045419 328.68647331 57.30614936 C340.99199758 55.62308476 340.99199758 55.62308476 353.251903 53.63915718 C363.02508361 51.93272881 372.85846174 50.65045419 382.68647331 49.30614936 C391.53294424 48.09445092 400.36022175 46.85585635 409.15473503 45.30321968 C417.44725735 43.87586704 425.7918137 42.78453205 434.126903 41.63915718 C434.92409752 41.52959693 435.72129204 41.42003669 436.54264396 41.30715644 C437.33478294 41.19830116 438.12692192 41.08944587 438.94306511 40.97729194 C449.21023431 39.56592563 459.46410467 38.09079668 469.70893425 36.52489936 C474.90861531 35.73616126 480.11180479 34.97087139 485.314403 34.20165718 C487.62820612 33.85921627 489.9420082 33.51676831 492.25580925 33.17431343 C493.41354851 33.00302925 494.57128776 32.83174507 495.76411003 32.65527046 C501.42681932 31.8173195 507.089354 30.97819049 512.751903 30.13915718 C515.00190212 29.80581794 517.25190212 29.47248461 519.501903 29.13915718 C520.615653 28.97415718 521.729403 28.80915718 522.876903 28.63915718 C553.251903 24.13915718 583.626903 19.63915718 614.001903 15.13915718 C615.67494499 14.89129463 615.67494499 14.89129463 617.38178581 14.63842475 C619.61550627 14.3075092 621.84923019 13.97661699 624.08295768 13.64574897 C629.95706432 12.77562224 635.83109749 11.90500339 641.705028 11.03368843 C642.92641472 10.85257514 644.14780143 10.67146186 645.40619987 10.4848603 C647.74085756 10.13865631 650.07549422 9.7923104 652.41010612 9.4457978 C653.9946862 9.21086616 653.9946862 9.21086616 655.611278 8.97118843 C656.53392448 8.8343061 657.45657097 8.69742378 658.40717643 8.5563935 C661.68748609 8.07527016 664.96981938 7.60802626 668.251903 7.13915718 C335.116903 6.64415718 335.116903 6.64415718 -4.748097 6.13915718 C-5.243097 3.66415718 -5.243097 3.66415718 -5.748097 1.13915718 C-4.11160034 -0.49733949 -2.25863044 0.00691026 0 0 Z M687.70893425 9.87353218 C686.64932487 10.03337593 685.5897155 10.19321968 684.49799675 10.35790718 C682.79836784 10.62087593 682.79836784 10.62087593 681.064403 10.88915718 C678.62301428 11.25906456 676.18160752 11.62885294 673.74018425 11.99853218 C672.49446647 12.18866889 671.2487487 12.37880561 669.9652819 12.57470405 C664.22999188 13.4464983 658.4909182 14.29229993 652.751903 15.13915718 C650.501882 15.47234872 648.25188205 15.80568249 646.001903 16.13915718 C478.939403 40.88915718 478.939403 40.88915718 -15.498097 114.13915718 C-16.61345833 114.30439888 -17.72881966 114.46964057 -18.87797982 114.6398896 C-21.11170027 114.97080515 -23.34542419 115.30169736 -25.57915169 115.63256538 C-31.45325832 116.50269211 -37.32729149 117.37331096 -43.201222 118.24462593 C-44.42260872 118.42573921 -45.64399544 118.60685249 -46.90239388 118.79345405 C-49.23705157 119.13965804 -51.57168822 119.48600395 -53.90630013 119.83251655 C-54.96268685 119.98913764 -56.01907357 120.14575874 -57.107472 120.30712593 C-58.08780403 120.45456245 -59.06813607 120.60199897 -60.07817513 120.75390327 C-61.72500052 120.99153042 -63.37457581 121.21176322 -65.02739388 121.40331733 C-66.60926524 121.58760133 -68.18153182 121.85253701 -69.748097 122.13915718 C-70.243097 123.12915718 -70.243097 123.12915718 -70.748097 124.13915718 C-69.6660096 124.28163887 -69.6660096 124.28163887 -68.56206185 124.42699897 C-54.70811509 126.26365517 -40.89943341 128.21888747 -27.123097 130.57665718 C-16.18551097 132.44750331 -5.23707902 134.10605885 5.751903 135.63915718 C17.83882997 137.32607707 29.87387338 139.20548366 41.90424675 141.26415718 C51.49942693 142.88873795 61.11465872 144.2939366 70.751903 145.63915718 C82.83880037 147.32631406 94.87386411 149.20548207 106.90424675 151.26415718 C116.49942693 152.88873795 126.11465872 154.2939366 135.751903 155.63915718 C147.83880037 157.32631406 159.87386411 159.20548207 171.90424675 161.26415718 C181.49942693 162.88873795 191.11465872 164.2939366 200.751903 165.63915718 C212.83880037 167.32631406 224.87386411 169.20548207 236.90424675 171.26415718 C247.23813449 173.01381013 257.59830614 174.50171638 267.97758049 175.94964302 C278.36917603 177.40231926 288.72049608 179.00195056 299.064403 180.76415718 C307.92548743 182.27069925 316.78582987 183.71758826 325.689403 184.95165718 C326.56507927 185.07556831 327.44075554 185.19947944 328.34296745 185.32714546 C329.56439445 185.49125923 329.56439445 185.49125923 330.81049675 185.65868843 C331.50457634 185.75254829 332.19865593 185.84640815 332.91376823 185.94311225 C340.28909535 186.56150921 345.30489869 185.31681828 352.05610222 182.55688179 C353.02000499 182.17398396 353.98390777 181.79108613 354.97701973 181.39658535 C358.17488527 180.12292902 361.36560197 178.83227956 364.5565905 177.54150093 C366.81397578 176.63858175 369.07178683 175.73672642 371.32999748 174.83587348 C376.73749842 172.67547876 382.14050559 170.50415577 387.54127771 168.32699871 C393.74206078 165.82764233 399.94700797 163.3387101 406.15225834 160.85047007 C414.12638779 157.6527733 422.09951272 154.45260531 430.06952995 151.2446717 C442.42164928 146.27366277 454.78259673 141.32867734 467.17788643 136.46627319 C471.65989943 134.70598565 476.13671593 132.93251032 480.61426872 131.16091621 C482.82183469 130.29144076 485.03181901 129.42807287 487.24451774 128.57174385 C501.94445411 122.87652512 515.26482174 115.84363767 528.73395866 107.65786445 C533.66461995 104.68391818 538.71214197 101.92295631 543.751903 99.13915718 C551.97529296 94.56599832 560.13777551 89.90341552 568.251903 85.13915718 C577.40103588 79.76718924 586.62593431 74.54839192 595.89643425 69.38915718 C603.06543995 65.38951265 610.17283062 61.29567673 617.251903 57.13915718 C625.3660929 52.37486219 633.52996691 47.71498771 641.751903 43.13915718 C651.05371764 37.9610215 660.2771197 32.66377022 669.46088737 27.27929389 C679.3456163 21.48576274 689.29160981 15.8015587 699.251903 10.13915718 C699.251903 9.80915718 699.251903 9.47915718 699.251903 9.13915718 C695.31325097 9.07103071 691.60112692 9.27738493 687.70893425 9.87353218 Z " fill="#F6F6F6" transform="translate(238.74809700250626,76.86084282398224)"/>
<path d="M0 0 C1.1682431 0.18516678 2.33648621 0.37033356 3.54013062 0.56111145 C4.80322052 0.76677231 6.06631042 0.97243317 7.36767578 1.18432617 C8.72538707 1.401114 10.08318796 1.61734138 11.44107056 1.83305359 C14.36213157 2.29792076 17.28268523 2.76581151 20.20288086 3.23608398 C28.14103447 4.5138537 36.08260111 5.7701952 44.02392578 7.02807617 C44.84594734 7.15844898 45.6679689 7.28882179 46.51490021 7.42314529 C63.71966636 10.15058181 80.94235557 12.75188485 98.17063141 15.32595444 C123.49298859 19.11020203 148.79573462 23.00199248 174.0844841 27.00452805 C205.73918742 32.01380387 237.42531086 36.80676223 269.12208557 41.54188538 C277.06388829 42.72932777 285.00233869 43.9368925 292.93798828 45.16479492 C292.93798828 45.49479492 292.93798828 45.82479492 292.93798828 46.16479492 C154.33798828 46.16479492 15.73798828 46.16479492 -127.06201172 46.16479492 C-124.42794799 43.53073119 -121.40506169 42.54613016 -117.99902344 41.20654297 C-116.90525894 40.76925621 -116.90525894 40.76925621 -115.78939819 40.32313538 C-113.35873747 39.35273632 -110.92523064 38.38968857 -108.49169922 37.42651367 C-106.7774061 36.74354906 -105.06330829 36.06009404 -103.34939575 35.37617493 C-98.80302941 33.56336262 -94.25428894 31.75658547 -89.70495605 29.95123291 C-84.31974224 27.81317834 -78.93684254 25.66930753 -73.554142 23.52493477 C-69.1530637 21.77162776 -64.75126502 20.02019605 -60.34759521 18.27340698 C-52.05717986 14.98110163 -43.78505862 11.65364126 -35.55126953 8.22192383 C-34.06686823 7.60632177 -32.58242317 6.9908252 -31.09793091 6.3754425 C-28.36745524 5.24308233 -25.64422146 4.09532121 -22.92428589 2.93791199 C-21.11711594 2.18747368 -21.11711594 2.18747368 -19.2734375 1.421875 C-18.23599396 0.98345779 -17.19855042 0.54504059 -16.12966919 0.09333801 C-10.69077326 -1.55295049 -5.53186823 -0.89050624 0 0 Z " fill="#010101" transform="translate(590.06201171875,270.835205078125)"/>
</svg>
